<svg width="204" height="65" viewBox="0 0 204 65" fill="none" xmlns="http://www.w3.org/2000/svg">
<rect x="1" y="1" width="202" height="63" rx="31.5" fill="#FBFBFB"/>
<rect x="1" y="1" width="202" height="63" rx="31.5" stroke="url(#paint0_linear_2010_53)" stroke-width="2"/>
<path d="M43.1006 41.008C42.9246 39.968 42.4606 38.848 41.7086 37.648C40.9566 36.432 39.8846 35.304 38.4926 34.264C37.1166 33.224 35.7406 32.56 34.3646 32.272V31.264C35.7246 30.944 37.0286 30.352 38.2766 29.488C39.5406 28.608 40.5966 27.552 41.4446 26.32C42.3086 25.056 42.8606 23.808 43.1006 22.576H44.1086C44.2526 23.376 44.5406 24.2 44.9726 25.048C45.4046 25.88 45.9566 26.68 46.6286 27.448C47.3166 28.2 48.0846 28.88 48.9326 29.488C50.1966 30.384 51.4846 30.976 52.7966 31.264V32.272C51.9166 32.448 51.0046 32.808 50.0606 33.352C49.1326 33.896 48.2686 34.544 47.4686 35.296C46.6686 36.032 46.0126 36.808 45.5006 37.624C44.7486 38.824 44.2846 39.952 44.1086 41.008H43.1006Z" fill="url(#paint1_linear_2010_53)"/>
<path d="M60.7774 40L67.1854 23.032H70.4734L76.8574 40H74.1214L72.8734 36.592H64.7614L63.5134 40H60.7774ZM65.6014 34.312H72.0334L68.8174 25.456L65.6014 34.312ZM84.9116 40.144C84.3836 40.144 83.8796 40.088 83.3996 39.976C82.9356 39.864 82.4956 39.688 82.0796 39.448C81.6796 39.192 81.3196 38.88 80.9996 38.512L80.9276 40H78.5276V23.032H80.9996V29.056C81.4476 28.448 82.0476 27.984 82.7996 27.664C83.5516 27.344 84.3276 27.184 85.1276 27.184C86.3916 27.184 87.4316 27.472 88.2476 28.048C89.0636 28.608 89.6636 29.376 90.0476 30.352C90.4476 31.312 90.6476 32.408 90.6476 33.64C90.6476 34.856 90.4396 35.96 90.0236 36.952C89.6076 37.928 88.9756 38.704 88.1276 39.28C87.2956 39.856 86.2236 40.144 84.9116 40.144ZM84.6476 37.96C85.5276 37.96 86.2236 37.76 86.7356 37.36C87.2476 36.96 87.6156 36.432 87.8396 35.776C88.0636 35.12 88.1756 34.416 88.1756 33.664C88.1756 32.88 88.0556 32.168 87.8156 31.528C87.5916 30.888 87.2156 30.376 86.6876 29.992C86.1756 29.608 85.4876 29.416 84.6236 29.416C83.8396 29.416 83.1756 29.632 82.6316 30.064C82.0876 30.48 81.6716 31.016 81.3836 31.672C81.1116 32.328 80.9756 33.008 80.9756 33.712C80.9756 34.448 81.0956 35.144 81.3356 35.8C81.5916 36.44 81.9916 36.96 82.5356 37.36C83.0796 37.76 83.7836 37.96 84.6476 37.96ZM98.8395 40.144C97.5275 40.144 96.4155 39.88 95.5035 39.352C94.5915 38.808 93.8955 38.048 93.4155 37.072C92.9515 36.096 92.7195 34.968 92.7195 33.688C92.7195 32.392 92.9595 31.264 93.4395 30.304C93.9195 29.328 94.6155 28.568 95.5275 28.024C96.4395 27.464 97.5515 27.184 98.8635 27.184C100.176 27.184 101.288 27.464 102.2 28.024C103.112 28.568 103.8 29.328 104.264 30.304C104.728 31.28 104.96 32.416 104.96 33.712C104.96 34.976 104.72 36.096 104.24 37.072C103.776 38.048 103.088 38.808 102.176 39.352C101.28 39.88 100.168 40.144 98.8395 40.144ZM98.8395 37.936C99.7035 37.936 100.4 37.744 100.928 37.36C101.472 36.976 101.872 36.464 102.128 35.824C102.384 35.168 102.512 34.456 102.512 33.688C102.512 32.92 102.384 32.216 102.128 31.576C101.872 30.936 101.472 30.424 100.928 30.04C100.4 29.64 99.7035 29.44 98.8395 29.44C97.9915 29.44 97.2955 29.64 96.7515 30.04C96.2075 30.424 95.8075 30.936 95.5515 31.576C95.3115 32.216 95.1915 32.92 95.1915 33.688C95.1915 34.472 95.3115 35.184 95.5515 35.824C95.8075 36.464 96.2075 36.976 96.7515 37.36C97.2955 37.744 97.9915 37.936 98.8395 37.936ZM112.92 40.144C111.144 40.144 109.784 39.68 108.84 38.752C107.912 37.808 107.448 36.376 107.448 34.456V27.352H109.92V34.312C109.92 35.064 110.024 35.712 110.232 36.256C110.456 36.8 110.792 37.216 111.24 37.504C111.688 37.792 112.256 37.936 112.944 37.936C113.664 37.936 114.24 37.792 114.672 37.504C115.12 37.2 115.44 36.776 115.632 36.232C115.84 35.688 115.944 35.048 115.944 34.312V27.352H118.416V34.456C118.416 36.408 117.936 37.848 116.976 38.776C116.032 39.688 114.68 40.144 112.92 40.144ZM126.291 40.144C124.931 40.144 123.955 39.776 123.363 39.04C122.787 38.288 122.499 37.24 122.499 35.896V29.56H120.483V27.352H122.499V23.68H124.971V27.352H128.835V29.56H124.971V35.488C124.971 35.936 125.011 36.344 125.091 36.712C125.187 37.08 125.363 37.368 125.619 37.576C125.875 37.784 126.243 37.896 126.723 37.912C127.091 37.912 127.411 37.848 127.683 37.72C127.971 37.592 128.203 37.448 128.379 37.288L129.339 39.136C129.035 39.376 128.715 39.576 128.379 39.736C128.059 39.88 127.723 39.984 127.371 40.048C127.019 40.112 126.659 40.144 126.291 40.144ZM138.187 40V23.032H141.811L146.731 31.984L151.555 23.032H155.083V40H152.563V26.032L147.211 35.776H146.107L140.731 26.032V40H138.187ZM164.158 40.144C162.83 40.144 161.718 39.872 160.822 39.328C159.926 38.784 159.246 38.032 158.782 37.072C158.334 36.096 158.11 34.976 158.11 33.712C158.11 32.432 158.342 31.304 158.806 30.328C159.286 29.352 159.974 28.584 160.87 28.024C161.782 27.464 162.878 27.184 164.158 27.184C165.134 27.184 165.982 27.368 166.702 27.736C167.422 28.088 168.014 28.568 168.478 29.176C168.958 29.784 169.31 30.464 169.534 31.216C169.758 31.952 169.854 32.72 169.822 33.52C169.822 33.696 169.814 33.864 169.798 34.024C169.782 34.184 169.766 34.352 169.75 34.528H160.606C160.654 35.168 160.814 35.752 161.086 36.28C161.374 36.808 161.774 37.232 162.286 37.552C162.798 37.856 163.43 38.008 164.182 38.008C164.598 38.008 164.998 37.96 165.382 37.864C165.782 37.752 166.134 37.584 166.438 37.36C166.758 37.12 166.982 36.816 167.11 36.448H169.606C169.398 37.296 169.022 38 168.478 38.56C167.95 39.104 167.302 39.504 166.534 39.76C165.782 40.016 164.99 40.144 164.158 40.144ZM160.654 32.56H167.374C167.358 31.936 167.214 31.384 166.942 30.904C166.67 30.408 166.294 30.024 165.814 29.752C165.334 29.464 164.758 29.32 164.086 29.32C163.35 29.32 162.734 29.472 162.238 29.776C161.758 30.08 161.382 30.48 161.11 30.976C160.854 31.456 160.702 31.984 160.654 32.56Z" fill="url(#paint2_linear_2010_53)"/>
<defs>
<linearGradient id="paint0_linear_2010_53" x1="73.8447" y1="0.999999" x2="135.577" y2="58.1432" gradientUnits="userSpaceOnUse">
<stop stop-color="#ABB6FF"/>
<stop offset="0.5" stop-color="#F3AAFE"/>
<stop offset="1" stop-color="#FFD3C0"/>
</linearGradient>
<linearGradient id="paint1_linear_2010_53" x1="82.7652" y1="17" x2="112.298" y2="54.9541" gradientUnits="userSpaceOnUse">
<stop stop-color="#ABB6FF"/>
<stop offset="0.5" stop-color="#F3AAFE"/>
<stop offset="1" stop-color="#FFD3C0"/>
</linearGradient>
<linearGradient id="paint2_linear_2010_53" x1="102" y1="17" x2="102" y2="48" gradientUnits="userSpaceOnUse">
<stop stop-color="#2D2D2D"/>
<stop offset="1"/>
</linearGradient>
</defs>
</svg>
