<svg width="246" height="63" viewBox="0 0 246 63" fill="none" xmlns="http://www.w3.org/2000/svg">
<rect x="1.5" y="1" width="243" height="61" rx="30.5" fill="#FBFBFB"/>
<rect x="1.5" y="1" width="243" height="61" rx="30.5" stroke="url(#paint0_linear_2089_75)" stroke-width="2"/>
<path d="M43.6748 41.008C43.4988 39.968 43.0348 38.848 42.2828 37.648C41.5308 36.432 40.4588 35.304 39.0668 34.264C37.6908 33.224 36.3148 32.56 34.9388 32.272V31.264C36.2988 30.944 37.6028 30.352 38.8508 29.488C40.1148 28.608 41.1708 27.552 42.0188 26.32C42.8828 25.056 43.4348 23.808 43.6748 22.576H44.6828C44.8268 23.376 45.1148 24.2 45.5468 25.048C45.9788 25.88 46.5308 26.68 47.2028 27.448C47.8908 28.2 48.6588 28.88 49.5068 29.488C50.7708 30.384 52.0588 30.976 53.3708 31.264V32.272C52.4908 32.448 51.5788 32.808 50.6348 33.352C49.7068 33.896 48.8428 34.544 48.0428 35.296C47.2428 36.032 46.5868 36.808 46.0748 37.624C45.3228 38.824 44.8588 39.952 44.6828 41.008H43.6748Z" fill="url(#paint1_linear_2089_75)"/>
<path d="M61.108 40V22.72H63.652V40H61.108ZM62.356 40V37.912H72.34V40H62.356ZM79.4422 40.24C78.2102 40.24 77.1222 39.968 76.1782 39.424C75.2502 38.88 74.5222 38.128 73.9942 37.168C73.4662 36.208 73.2022 35.104 73.2022 33.856C73.2022 32.592 73.4582 31.488 73.9702 30.544C74.4982 29.584 75.2342 28.84 76.1782 28.312C77.1222 27.784 78.2022 27.52 79.4182 27.52C80.6022 27.52 81.6262 27.776 82.4902 28.288C83.3702 28.784 84.0422 29.48 84.5062 30.376C84.9862 31.272 85.2262 32.336 85.2262 33.568C85.2262 33.76 85.2182 33.944 85.2022 34.12C85.2022 34.28 85.1862 34.448 85.1542 34.624H74.8822V32.752H83.4022L82.7782 33.496C82.7782 32.184 82.4822 31.184 81.8902 30.496C81.2982 29.808 80.4742 29.464 79.4182 29.464C78.2822 29.464 77.3782 29.856 76.7062 30.64C76.0502 31.408 75.7222 32.48 75.7222 33.856C75.7222 35.248 76.0502 36.336 76.7062 37.12C77.3782 37.904 78.3062 38.296 79.4902 38.296C80.2102 38.296 80.8342 38.152 81.3622 37.864C81.8902 37.56 82.2822 37.12 82.5382 36.544H84.8902C84.4902 37.696 83.8102 38.6 82.8502 39.256C81.9062 39.912 80.7702 40.24 79.4422 40.24ZM92.7764 40.24C91.3524 40.24 90.3044 39.912 89.6324 39.256C88.9764 38.584 88.6484 37.6 88.6484 36.304V24.952L91.1204 24.016V36.328C91.1204 36.968 91.2884 37.44 91.6244 37.744C91.9604 38.048 92.5044 38.2 93.2564 38.2C93.5444 38.2 93.8004 38.176 94.0244 38.128C94.2484 38.08 94.4404 38.024 94.6004 37.96V39.976C94.4244 40.056 94.1764 40.12 93.8564 40.168C93.5364 40.216 93.1764 40.24 92.7764 40.24ZM86.2004 29.752V27.76H94.6004V29.752H86.2004ZM96.0728 28.408V27.16C96.6968 27.096 97.1208 26.88 97.3448 26.512C97.5848 26.128 97.7048 25.568 97.7048 24.832L98.6648 24.976H96.0968V22.168H99.1208V24.328C99.1208 25.4 98.8728 26.304 98.3768 27.04C97.8968 27.776 97.1288 28.232 96.0728 28.408ZM105.016 40.24C103.416 40.24 102.144 39.888 101.2 39.184C100.256 38.48 99.7197 37.488 99.5917 36.208H101.896C102.008 36.912 102.328 37.456 102.856 37.84C103.4 38.208 104.136 38.392 105.064 38.392C105.88 38.392 106.504 38.248 106.936 37.96C107.368 37.672 107.584 37.264 107.584 36.736C107.584 36.352 107.456 36.032 107.2 35.776C106.96 35.504 106.48 35.28 105.76 35.104L103.792 34.648C102.56 34.344 101.64 33.896 101.032 33.304C100.44 32.696 100.144 31.952 100.144 31.072C100.144 29.968 100.552 29.104 101.368 28.48C102.2 27.84 103.336 27.52 104.776 27.52C106.2 27.52 107.344 27.84 108.208 28.48C109.088 29.12 109.584 30.016 109.696 31.168H107.392C107.296 30.592 107.016 30.152 106.552 29.848C106.104 29.528 105.488 29.368 104.704 29.368C103.968 29.368 103.4 29.504 103 29.776C102.616 30.032 102.424 30.392 102.424 30.856C102.424 31.24 102.568 31.56 102.856 31.816C103.16 32.072 103.656 32.288 104.344 32.464L106.36 32.968C107.528 33.256 108.408 33.728 109 34.384C109.592 35.024 109.888 35.8 109.888 36.712C109.888 37.816 109.456 38.68 108.592 39.304C107.744 39.928 106.552 40.24 105.016 40.24ZM124.568 40.24C123.368 40.24 122.256 40.024 121.232 39.592C120.208 39.144 119.32 38.528 118.568 37.744C117.832 36.944 117.256 36 116.84 34.912C116.424 33.824 116.216 32.632 116.216 31.336C116.216 30.04 116.416 28.856 116.816 27.784C117.232 26.696 117.808 25.76 118.544 24.976C119.296 24.176 120.184 23.56 121.208 23.128C122.232 22.696 123.344 22.48 124.544 22.48C125.888 22.48 127.096 22.752 128.168 23.296C129.24 23.824 130.112 24.576 130.784 25.552C131.472 26.528 131.896 27.664 132.056 28.96H129.56C129.352 27.6 128.8 26.544 127.904 25.792C127.024 25.024 125.912 24.64 124.568 24.64C123.432 24.64 122.424 24.92 121.544 25.48C120.68 26.024 120.008 26.8 119.528 27.808C119.048 28.8 118.808 29.976 118.808 31.336C118.808 32.68 119.048 33.864 119.528 34.888C120.024 35.896 120.704 36.68 121.568 37.24C122.432 37.8 123.432 38.08 124.568 38.08C125.912 38.08 127.032 37.704 127.928 36.952C128.84 36.184 129.392 35.12 129.584 33.76H132.104C131.928 35.072 131.496 36.216 130.808 37.192C130.12 38.152 129.24 38.904 128.168 39.448C127.112 39.976 125.912 40.24 124.568 40.24ZM140.053 40.24C138.805 40.24 137.709 39.968 136.765 39.424C135.821 38.864 135.085 38.104 134.557 37.144C134.029 36.168 133.765 35.064 133.765 33.832C133.765 32.584 134.029 31.488 134.557 30.544C135.101 29.6 135.837 28.864 136.765 28.336C137.709 27.792 138.805 27.52 140.053 27.52C141.317 27.52 142.421 27.792 143.365 28.336C144.309 28.864 145.037 29.6 145.549 30.544C146.077 31.488 146.341 32.584 146.341 33.832C146.341 35.064 146.077 36.168 145.549 37.144C145.037 38.104 144.309 38.864 143.365 39.424C142.421 39.968 141.317 40.24 140.053 40.24ZM140.053 38.2C140.805 38.2 141.453 38.016 141.997 37.648C142.557 37.28 142.997 36.768 143.317 36.112C143.637 35.456 143.797 34.688 143.797 33.808C143.797 32.496 143.445 31.464 142.741 30.712C142.053 29.944 141.157 29.56 140.053 29.56C138.965 29.56 138.069 29.944 137.365 30.712C136.677 31.48 136.333 32.512 136.333 33.808C136.333 34.688 136.485 35.456 136.789 36.112C137.109 36.768 137.549 37.28 138.109 37.648C138.685 38.016 139.333 38.2 140.053 38.2ZM148.904 40V27.76H151.28V30.64H151.4V40H148.904ZM157.592 40V32.128C157.592 31.28 157.376 30.648 156.944 30.232C156.528 29.816 155.904 29.608 155.072 29.608C154.352 29.608 153.712 29.768 153.152 30.088C152.608 30.408 152.176 30.848 151.856 31.408C151.552 31.968 151.4 32.632 151.4 33.4L151.088 30.472C151.488 29.56 152.104 28.84 152.936 28.312C153.768 27.784 154.736 27.52 155.84 27.52C157.152 27.52 158.184 27.888 158.936 28.624C159.688 29.36 160.064 30.336 160.064 31.552V40H157.592ZM163.459 40V27.76H165.835V30.64H165.955V40H163.459ZM172.147 40V32.128C172.147 31.28 171.931 30.648 171.499 30.232C171.083 29.816 170.459 29.608 169.627 29.608C168.907 29.608 168.267 29.768 167.707 30.088C167.163 30.408 166.731 30.848 166.411 31.408C166.107 31.968 165.955 32.632 165.955 33.4L165.643 30.472C166.043 29.56 166.659 28.84 167.491 28.312C168.323 27.784 169.291 27.52 170.395 27.52C171.707 27.52 172.739 27.888 173.491 28.624C174.243 29.36 174.619 30.336 174.619 31.552V40H172.147ZM183.294 40.24C182.062 40.24 180.974 39.968 180.03 39.424C179.102 38.88 178.374 38.128 177.846 37.168C177.318 36.208 177.054 35.104 177.054 33.856C177.054 32.592 177.31 31.488 177.822 30.544C178.35 29.584 179.086 28.84 180.03 28.312C180.974 27.784 182.054 27.52 183.27 27.52C184.454 27.52 185.478 27.776 186.342 28.288C187.222 28.784 187.894 29.48 188.358 30.376C188.838 31.272 189.078 32.336 189.078 33.568C189.078 33.76 189.07 33.944 189.054 34.12C189.054 34.28 189.038 34.448 189.006 34.624H178.734V32.752H187.254L186.63 33.496C186.63 32.184 186.334 31.184 185.742 30.496C185.15 29.808 184.326 29.464 183.27 29.464C182.134 29.464 181.23 29.856 180.558 30.64C179.902 31.408 179.574 32.48 179.574 33.856C179.574 35.248 179.902 36.336 180.558 37.12C181.23 37.904 182.158 38.296 183.342 38.296C184.062 38.296 184.686 38.152 185.214 37.864C185.742 37.56 186.134 37.12 186.39 36.544H188.742C188.342 37.696 187.662 38.6 186.702 39.256C185.758 39.912 184.622 40.24 183.294 40.24ZM196.789 40.24C195.621 40.24 194.581 39.968 193.669 39.424C192.757 38.864 192.037 38.104 191.509 37.144C190.997 36.184 190.741 35.088 190.741 33.856C190.741 32.624 190.997 31.536 191.509 30.592C192.037 29.632 192.757 28.88 193.669 28.336C194.581 27.792 195.613 27.52 196.765 27.52C197.741 27.52 198.613 27.704 199.381 28.072C200.149 28.44 200.781 28.952 201.277 29.608C201.773 30.264 202.093 31.04 202.237 31.936H199.885C199.725 31.216 199.373 30.64 198.829 30.208C198.301 29.776 197.629 29.56 196.813 29.56C196.109 29.56 195.493 29.736 194.965 30.088C194.437 30.44 194.029 30.936 193.741 31.576C193.453 32.216 193.309 32.976 193.309 33.856C193.309 34.72 193.453 35.48 193.741 36.136C194.029 36.792 194.437 37.304 194.965 37.672C195.493 38.024 196.117 38.2 196.837 38.2C197.621 38.2 198.285 37.992 198.829 37.576C199.389 37.144 199.749 36.568 199.909 35.848H202.261C202.101 36.728 201.765 37.496 201.253 38.152C200.757 38.808 200.125 39.32 199.357 39.688C198.589 40.056 197.733 40.24 196.789 40.24ZM209.847 40.24C208.423 40.24 207.375 39.912 206.703 39.256C206.047 38.584 205.719 37.6 205.719 36.304V24.952L208.191 24.016V36.328C208.191 36.968 208.359 37.44 208.695 37.744C209.031 38.048 209.575 38.2 210.327 38.2C210.615 38.2 210.871 38.176 211.095 38.128C211.319 38.08 211.511 38.024 211.671 37.96V39.976C211.495 40.056 211.247 40.12 210.927 40.168C210.607 40.216 210.247 40.24 209.847 40.24ZM203.271 29.752V27.76H211.671V29.752H203.271Z" fill="url(#paint2_linear_2089_75)"/>
<defs>
<linearGradient id="paint0_linear_2089_75" x1="89.13" y1="0.999999" x2="148.5" y2="69.2783" gradientUnits="userSpaceOnUse">
<stop stop-color="#ABB6FF"/>
<stop offset="0.5" stop-color="#F3AAFE"/>
<stop offset="1" stop-color="#FFD3C0"/>
</linearGradient>
<linearGradient id="paint1_linear_2089_75" x1="98.0505" y1="17" x2="122.378" y2="60.3503" gradientUnits="userSpaceOnUse">
<stop stop-color="#ABB6FF"/>
<stop offset="0.5" stop-color="#F3AAFE"/>
<stop offset="1" stop-color="#FFD3C0"/>
</linearGradient>
<linearGradient id="paint2_linear_2089_75" x1="123" y1="17" x2="123" y2="46" gradientUnits="userSpaceOnUse">
<stop stop-color="#2D2D2D"/>
<stop offset="1"/>
</linearGradient>
</defs>
</svg>
