<svg width="140" height="63" viewBox="0 0 140 63" fill="none" xmlns="http://www.w3.org/2000/svg">
<rect x="1" y="1" width="138" height="61" rx="30.5" fill="#FBFBFB"/>
<rect x="1" y="1" width="138" height="61" rx="30.5" stroke="url(#paint0_linear_2050_287)" stroke-width="2"/>
<path d="M43.1045 41.008C42.9285 39.968 42.4645 38.848 41.7125 37.648C40.9605 36.432 39.8885 35.304 38.4965 34.264C37.1205 33.224 35.7445 32.56 34.3685 32.272V31.264C35.7285 30.944 37.0325 30.352 38.2805 29.488C39.5445 28.608 40.6005 27.552 41.4485 26.32C42.3125 25.056 42.8645 23.808 43.1045 22.576H44.1125C44.2565 23.376 44.5445 24.2 44.9765 25.048C45.4085 25.88 45.9605 26.68 46.6325 27.448C47.3205 28.2 48.0885 28.88 48.9365 29.488C50.2005 30.384 51.4885 30.976 52.8005 31.264V32.272C51.9205 32.448 51.0085 32.808 50.0645 33.352C49.1365 33.896 48.2725 34.544 47.4725 35.296C46.6725 36.032 46.0165 36.808 45.5045 37.624C44.7525 38.824 44.2885 39.952 44.1125 41.008H43.1045Z" fill="url(#paint1_linear_2050_287)"/>
<path d="M60.5377 40V22.72H63.0817V40H60.5377ZM61.7857 32.824V30.736H71.2897V32.824H61.7857ZM61.7857 24.808V22.72H71.9377V24.808H61.7857ZM71.975 40L78.479 22.72H80.687L74.471 40H71.975ZM85.343 40L79.127 22.72H81.455L87.983 40H85.343ZM75.263 33.112H84.527V35.224H75.263V33.112ZM97.5219 40.24C95.7459 40.24 94.2019 39.864 92.8899 39.112C91.5779 38.344 90.5619 37.288 89.8419 35.944C89.1379 34.584 88.7859 33.032 88.7859 31.288C88.7859 29.56 89.1459 28.032 89.8659 26.704C90.5859 25.376 91.5779 24.344 92.8419 23.608C94.1219 22.856 95.5779 22.48 97.2099 22.48C98.8739 22.48 100.338 22.856 101.602 23.608C102.866 24.344 103.858 25.376 104.578 26.704C105.314 28.032 105.682 29.568 105.682 31.312C105.682 32.544 105.474 33.688 105.058 34.744C104.658 35.8 104.042 36.696 103.21 37.432C102.394 38.168 101.362 38.68 100.114 38.968L97.5219 40.24ZM97.2099 38.2C98.3939 38.2 99.4179 37.904 100.282 37.312C101.162 36.72 101.85 35.904 102.346 34.864C102.842 33.824 103.09 32.624 103.09 31.264C103.09 29.952 102.842 28.8 102.346 27.808C101.85 26.8 101.162 26.024 100.282 25.48C99.4019 24.92 98.3779 24.64 97.2099 24.64C96.0419 24.64 95.0179 24.92 94.1379 25.48C93.2739 26.024 92.5939 26.792 92.0979 27.784C91.6179 28.776 91.3779 29.936 91.3779 31.264C91.3779 32.64 91.6259 33.848 92.1219 34.888C92.6179 35.912 93.2979 36.72 94.1619 37.312C95.0419 37.904 96.0579 38.2 97.2099 38.2ZM97.5219 40.24L97.2339 38.512L106.402 37.912V40C105.41 40 104.554 40.008 103.834 40.024C103.13 40.056 102.466 40.088 101.842 40.12C101.234 40.152 100.594 40.176 99.9219 40.192C99.2499 40.224 98.4499 40.24 97.5219 40.24Z" fill="url(#paint2_linear_2050_287)"/>
<defs>
<linearGradient id="paint0_linear_2050_287" x1="50.7652" y1="0.999999" x2="105.659" y2="36.8523" gradientUnits="userSpaceOnUse">
<stop stop-color="#ABB6FF"/>
<stop offset="0.5" stop-color="#F3AAFE"/>
<stop offset="1" stop-color="#FFD3C0"/>
</linearGradient>
<linearGradient id="paint1_linear_2050_287" x1="59.6857" y1="17" x2="86.9058" y2="37.0524" gradientUnits="userSpaceOnUse">
<stop stop-color="#ABB6FF"/>
<stop offset="0.5" stop-color="#F3AAFE"/>
<stop offset="1" stop-color="#FFD3C0"/>
</linearGradient>
<linearGradient id="paint2_linear_2050_287" x1="70" y1="17" x2="70" y2="46" gradientUnits="userSpaceOnUse">
<stop stop-color="#2D2D2D"/>
<stop offset="1"/>
</linearGradient>
</defs>
</svg>
