<svg width="28" height="28" viewBox="0 0 28 28" fill="none" xmlns="http://www.w3.org/2000/svg">
<g clip-path="url(#clip0_15_117)">
<path d="M14 2.33334C11.2218 2.32286 8.53097 3.30418 6.41174 5.10074C4.29252 6.89731 2.88399 9.39118 2.43957 12.1337C1.99514 14.8762 2.544 17.6872 3.9874 20.0611C5.43079 22.435 7.67397 24.2159 10.3133 25.0833C10.8967 25.1767 11.0833 24.815 11.0833 24.5V22.5283C7.85167 23.2283 7.16334 21 7.16334 21C6.94546 20.2754 6.47313 19.6539 5.83334 19.25C4.77167 18.5267 5.915 18.55 5.915 18.55C6.28122 18.5974 6.63199 18.7269 6.94109 18.9289C7.25019 19.131 7.50963 19.4003 7.7 19.7167C8.02408 20.2929 8.56254 20.7179 9.1983 20.8992C9.83406 21.0806 10.5157 21.0036 11.095 20.685C11.1482 20.0936 11.4085 19.5399 11.83 19.1217C9.33334 18.865 6.55667 17.8617 6.55667 13.4167C6.52292 12.2517 6.94096 11.1188 7.72334 10.255C7.36813 9.25101 7.40986 8.14925 7.84 7.175C7.84 7.175 8.82 6.86 11.0483 8.34167C12.9589 7.82808 14.9711 7.82808 16.8817 8.34167C19.11 6.83667 20.09 7.175 20.09 7.175C20.5201 8.14925 20.5619 9.25101 20.2067 10.255C20.989 11.1188 21.4071 12.2517 21.3733 13.4167C21.3733 17.8733 18.6433 18.8533 16.0417 19.145C16.3219 19.4266 16.5386 19.7649 16.6775 20.1372C16.8163 20.5094 16.874 20.907 16.8467 21.3033V24.5C16.8467 24.815 17.0333 25.1883 17.6283 25.0833C20.2629 24.2174 22.5028 22.4413 23.9465 20.0735C25.3902 17.7058 25.9433 14.9011 25.5065 12.1625C25.0697 9.42393 23.6717 6.93048 21.5631 5.12924C19.4545 3.32801 16.7732 2.33679 14 2.33334Z" fill="white"/>
</g>
<defs>
<clipPath id="clip0_15_117">
<rect width="28" height="28" fill="white"/>
</clipPath>
</defs>
</svg>
