<svg width="60" height="60" viewBox="0 0 60 60" fill="none" xmlns="http://www.w3.org/2000/svg">
<path d="M48.8227 17.7375C49.3958 15.8888 49.5796 13.9413 49.3626 12.018C49.1456 10.0946 48.5324 8.2371 47.5617 6.56253C47.3971 6.27743 47.1604 6.0407 46.8752 5.87613C46.5901 5.71156 46.2667 5.62496 45.9375 5.62503C43.7536 5.62046 41.5988 6.12674 39.6455 7.10343C37.6921 8.08012 35.9942 9.50014 34.6875 11.25H29.0625C27.7558 9.50014 26.0579 8.08012 24.1045 7.10343C22.1512 6.12674 19.9964 5.62046 17.8125 5.62503C17.4833 5.62496 17.1599 5.71156 16.8748 5.87613C16.5896 6.0407 16.3529 6.27743 16.1883 6.56253C15.2176 8.2371 14.6044 10.0946 14.3874 12.018C14.1704 13.9413 14.3542 15.8888 14.9273 17.7375C13.7689 19.7595 13.1483 22.0448 13.125 24.375V26.25C13.1289 29.4225 14.2806 32.4865 16.3674 34.8761C18.4542 37.2657 21.3351 38.8196 24.4781 39.2508C23.1952 40.8925 22.4988 42.9165 22.5 45V46.875H16.875C15.3832 46.875 13.9524 46.2824 12.8975 45.2275C11.8426 44.1726 11.25 42.7419 11.25 41.25C11.25 40.0189 11.0075 38.7998 10.5364 37.6624C10.0652 36.5249 9.37468 35.4915 8.50413 34.6209C7.63358 33.7504 6.60008 33.0598 5.46266 32.5887C4.32523 32.1175 3.10614 31.875 1.875 31.875C1.37772 31.875 0.900806 32.0726 0.549175 32.4242C0.197544 32.7758 0 33.2528 0 33.75C0 34.2473 0.197544 34.7242 0.549175 35.0759C0.900806 35.4275 1.37772 35.625 1.875 35.625C3.36684 35.625 4.79758 36.2177 5.85248 37.2726C6.90737 38.3274 7.5 39.7582 7.5 41.25C7.5 43.7364 8.48772 46.121 10.2459 47.8792C12.004 49.6373 14.3886 50.625 16.875 50.625H22.5V54.375C22.5 54.8723 22.6975 55.3492 23.0492 55.7009C23.4008 56.0525 23.8777 56.25 24.375 56.25C24.8723 56.25 25.3492 56.0525 25.7008 55.7009C26.0525 55.3492 26.25 54.8723 26.25 54.375V45C26.25 43.5082 26.8426 42.0774 27.8975 41.0226C28.9524 39.9677 30.3832 39.375 31.875 39.375C33.3668 39.375 34.7976 39.9677 35.8525 41.0226C36.9074 42.0774 37.5 43.5082 37.5 45V54.375C37.5 54.8723 37.6975 55.3492 38.0492 55.7009C38.4008 56.0525 38.8777 56.25 39.375 56.25C39.8723 56.25 40.3492 56.0525 40.7008 55.7009C41.0525 55.3492 41.25 54.8723 41.25 54.375V45C41.2512 42.9165 40.5548 40.8925 39.2719 39.2508C42.4149 38.8196 45.2958 37.2657 47.3826 34.8761C49.4694 32.4865 50.6211 29.4225 50.625 26.25V24.375C50.6017 22.0448 49.9811 19.7595 48.8227 17.7375ZM46.875 26.25C46.875 28.7364 45.8873 31.121 44.1291 32.8792C42.371 34.6373 39.9864 35.625 37.5 35.625H26.25C23.7636 35.625 21.379 34.6373 19.6209 32.8792C17.8627 31.121 16.875 28.7364 16.875 26.25V24.375C16.898 22.5001 17.4593 20.6713 18.4922 19.1063C18.6847 18.8525 18.8094 18.5538 18.8545 18.2385C18.8996 17.9232 18.8637 17.6015 18.75 17.3039C18.2616 16.0444 18.0266 14.7009 18.0583 13.3503C18.0901 11.9998 18.3881 10.6688 18.9352 9.43362C20.4696 9.5987 21.9473 10.107 23.2586 10.9209C24.5699 11.7348 25.6812 12.8334 26.5102 14.1352C26.6791 14.3993 26.9115 14.6169 27.1863 14.768C27.461 14.9191 27.7693 14.9989 28.0828 15H35.6648C35.9796 15 36.2892 14.9208 36.5653 14.7697C36.8414 14.6185 37.075 14.4003 37.2445 14.1352C38.0733 12.8332 39.1846 11.7346 40.4959 10.9207C41.8073 10.1068 43.285 9.59854 44.8195 9.43362C45.3659 10.6691 45.663 12.0003 45.694 13.3508C45.725 14.7013 45.4891 16.0447 45 17.3039C44.8867 17.5987 44.8488 17.9171 44.8897 18.2302C44.9306 18.5433 45.0491 18.8412 45.2344 19.0969C46.2775 20.6619 46.8471 22.4945 46.875 24.375V26.25Z" fill="url(#paint0_linear_2089_97)"/>
<defs>
<linearGradient id="paint0_linear_2089_97" x1="25.3125" y1="5.625" x2="25.3125" y2="56.25" gradientUnits="userSpaceOnUse">
<stop stop-color="#2D2D2D"/>
<stop offset="1"/>
</linearGradient>
</defs>
</svg>
