<svg width="509" height="65" viewBox="0 0 509 65" fill="none" xmlns="http://www.w3.org/2000/svg">
<rect x="1" y="1" width="507" height="63" rx="31.5" fill="#FBFBFB"/>
<rect x="1" y="1" width="507" height="63" rx="31.5" stroke="url(#paint0_linear_2009_22)" stroke-width="2"/>
<path d="M35.2654 40V23.032H46.9054V25.36H37.8094V31.048H45.6574V33.4H37.8094V40H35.2654ZM54.6235 40.144C52.8475 40.144 51.4875 39.68 50.5435 38.752C49.6155 37.808 49.1515 36.376 49.1515 34.456V27.352H51.6235V34.312C51.6235 35.064 51.7275 35.712 51.9355 36.256C52.1595 36.8 52.4955 37.216 52.9435 37.504C53.3915 37.792 53.9595 37.936 54.6475 37.936C55.3675 37.936 55.9435 37.792 56.3755 37.504C56.8235 37.2 57.1435 36.776 57.3355 36.232C57.5435 35.688 57.6475 35.048 57.6475 34.312V27.352H60.1195V34.456C60.1195 36.408 59.6395 37.848 58.6795 38.776C57.7355 39.688 56.3835 40.144 54.6235 40.144ZM63.0979 40V23.032H65.5699V40H63.0979ZM68.6292 40V23.032H71.1012V40H68.6292ZM87.4424 40.192C86.3384 40.192 85.2984 40.032 84.3224 39.712C83.3464 39.392 82.5224 38.872 81.8504 38.152C81.1784 37.432 80.7304 36.48 80.5064 35.296H83.1224C83.3304 35.968 83.6664 36.496 84.1304 36.88C84.5944 37.248 85.1304 37.504 85.7384 37.648C86.3624 37.792 86.9864 37.864 87.6104 37.864C88.2024 37.864 88.7544 37.784 89.2664 37.624C89.7944 37.464 90.2264 37.2 90.5624 36.832C90.8984 36.464 91.0664 35.984 91.0664 35.392C91.0664 34.944 90.9784 34.576 90.8024 34.288C90.6264 34 90.3784 33.768 90.0584 33.592C89.7544 33.4 89.3864 33.248 88.9544 33.136C88.4584 32.976 87.9224 32.84 87.3464 32.728C86.7864 32.616 86.2264 32.488 85.6664 32.344C85.1224 32.2 84.6104 32.016 84.1304 31.792C83.7304 31.632 83.3384 31.44 82.9544 31.216C82.5864 30.976 82.2664 30.696 81.9944 30.376C81.7224 30.04 81.4984 29.648 81.3224 29.2C81.1624 28.752 81.0824 28.24 81.0824 27.664C81.0824 26.896 81.2024 26.24 81.4424 25.696C81.6984 25.152 82.0264 24.696 82.4264 24.328C82.8424 23.96 83.3144 23.672 83.8424 23.464C84.3864 23.24 84.9544 23.08 85.5464 22.984C86.1384 22.888 86.7144 22.84 87.2744 22.84C88.2984 22.84 89.2424 23 90.1064 23.32C90.9704 23.64 91.6824 24.152 92.2424 24.856C92.8184 25.544 93.1304 26.456 93.1784 27.592H90.7064C90.6424 26.984 90.4344 26.504 90.0824 26.152C89.7464 25.784 89.3224 25.528 88.8104 25.384C88.2984 25.224 87.7544 25.144 87.1784 25.144C86.7624 25.144 86.3464 25.184 85.9304 25.264C85.5144 25.328 85.1304 25.456 84.7784 25.648C84.4424 25.824 84.1704 26.064 83.9624 26.368C83.7704 26.672 83.6744 27.048 83.6744 27.496C83.6744 27.88 83.7544 28.224 83.9144 28.528C84.0744 28.816 84.2984 29.064 84.5864 29.272C84.8904 29.464 85.2264 29.632 85.5944 29.776C86.2664 30.032 87.0024 30.232 87.8024 30.376C88.6024 30.504 89.3544 30.688 90.0584 30.928C90.5704 31.088 91.0504 31.288 91.4984 31.528C91.9464 31.752 92.3304 32.032 92.6504 32.368C92.9704 32.688 93.2184 33.072 93.3944 33.52C93.5704 33.952 93.6584 34.456 93.6584 35.032C93.6584 35.976 93.4904 36.784 93.1544 37.456C92.8184 38.112 92.3624 38.64 91.7864 39.04C91.2104 39.44 90.5464 39.736 89.7944 39.928C89.0424 40.104 88.2584 40.192 87.4424 40.192ZM101.369 40.144C100.009 40.144 99.0329 39.776 98.4409 39.04C97.8649 38.288 97.5769 37.24 97.5769 35.896V29.56H95.5609V27.352H97.5769V23.68H100.049V27.352H103.913V29.56H100.049V35.488C100.049 35.936 100.089 36.344 100.169 36.712C100.265 37.08 100.441 37.368 100.697 37.576C100.953 37.784 101.321 37.896 101.801 37.912C102.169 37.912 102.489 37.848 102.761 37.72C103.049 37.592 103.281 37.448 103.457 37.288L104.417 39.136C104.113 39.376 103.793 39.576 103.457 39.736C103.137 39.88 102.801 39.984 102.449 40.048C102.097 40.112 101.737 40.144 101.369 40.144ZM110.232 40.144C109.656 40.144 109.096 40.072 108.552 39.928C108.024 39.768 107.552 39.536 107.136 39.232C106.72 38.912 106.384 38.52 106.128 38.056C105.888 37.576 105.768 37.016 105.768 36.376C105.768 35.608 105.912 34.976 106.2 34.48C106.504 33.968 106.904 33.576 107.4 33.304C107.896 33.016 108.464 32.816 109.104 32.704C109.76 32.576 110.44 32.512 111.144 32.512H114.24C114.24 31.888 114.144 31.344 113.952 30.88C113.76 30.4 113.456 30.032 113.04 29.776C112.64 29.504 112.104 29.368 111.432 29.368C111.032 29.368 110.648 29.416 110.28 29.512C109.928 29.592 109.624 29.728 109.368 29.92C109.112 30.112 108.936 30.368 108.84 30.688H106.248C106.344 30.08 106.56 29.56 106.896 29.128C107.232 28.68 107.648 28.312 108.144 28.024C108.64 27.736 109.168 27.528 109.728 27.4C110.304 27.256 110.888 27.184 111.48 27.184C113.304 27.184 114.616 27.72 115.416 28.792C116.232 29.848 116.64 31.304 116.64 33.16V40H114.504L114.408 38.392C114.04 38.888 113.6 39.264 113.088 39.52C112.592 39.776 112.096 39.944 111.6 40.024C111.104 40.104 110.648 40.144 110.232 40.144ZM110.616 38.056C111.336 38.056 111.968 37.936 112.512 37.696C113.056 37.44 113.48 37.08 113.784 36.616C114.088 36.136 114.24 35.576 114.24 34.936V34.408H111.984C111.52 34.408 111.064 34.424 110.616 34.456C110.184 34.472 109.784 34.536 109.416 34.648C109.064 34.744 108.776 34.912 108.552 35.152C108.344 35.392 108.24 35.736 108.24 36.184C108.24 36.616 108.352 36.968 108.576 37.24C108.8 37.512 109.096 37.72 109.464 37.864C109.832 37.992 110.216 38.056 110.616 38.056ZM125.102 40.144C123.774 40.144 122.662 39.872 121.766 39.328C120.886 38.784 120.222 38.032 119.774 37.072C119.342 36.096 119.126 34.976 119.126 33.712C119.126 32.464 119.35 31.352 119.798 30.376C120.262 29.384 120.95 28.608 121.862 28.048C122.79 27.472 123.934 27.184 125.294 27.184C126.222 27.184 127.046 27.344 127.766 27.664C128.486 27.968 129.07 28.424 129.518 29.032C129.982 29.624 130.286 30.368 130.43 31.264H127.958C127.75 30.608 127.398 30.136 126.902 29.848C126.422 29.56 125.854 29.416 125.198 29.416C124.318 29.416 123.614 29.624 123.086 30.04C122.574 30.456 122.198 30.992 121.958 31.648C121.718 32.304 121.598 32.992 121.598 33.712C121.598 34.464 121.718 35.16 121.958 35.8C122.214 36.44 122.598 36.96 123.11 37.36C123.638 37.744 124.326 37.936 125.174 37.936C125.814 37.936 126.406 37.8 126.95 37.528C127.494 37.24 127.846 36.76 128.006 36.088H130.55C130.406 37.016 130.07 37.784 129.542 38.392C129.014 38.984 128.358 39.424 127.574 39.712C126.806 40 125.982 40.144 125.102 40.144ZM132.942 40V23.032H135.414V32.608H137.454L141.006 27.352H143.79L139.638 33.376L144.15 40H141.246L137.646 34.792H135.414V40H132.942ZM152.805 40V23.032H158.949C160.725 23.032 162.213 23.384 163.413 24.088C164.629 24.776 165.541 25.76 166.149 27.04C166.773 28.304 167.085 29.8 167.085 31.528C167.085 33.256 166.781 34.752 166.173 36.016C165.565 37.28 164.653 38.264 163.437 38.968C162.237 39.656 160.749 40 158.973 40H152.805ZM155.349 37.672H158.853C160.165 37.672 161.237 37.416 162.069 36.904C162.901 36.376 163.517 35.656 163.917 34.744C164.317 33.816 164.517 32.744 164.517 31.528C164.517 30.344 164.317 29.288 163.917 28.36C163.533 27.432 162.925 26.704 162.093 26.176C161.277 25.632 160.221 25.36 158.925 25.36H155.349V37.672ZM175.236 40.144C173.908 40.144 172.796 39.872 171.9 39.328C171.004 38.784 170.324 38.032 169.86 37.072C169.412 36.096 169.188 34.976 169.188 33.712C169.188 32.432 169.42 31.304 169.884 30.328C170.364 29.352 171.052 28.584 171.948 28.024C172.86 27.464 173.956 27.184 175.236 27.184C176.212 27.184 177.06 27.368 177.78 27.736C178.5 28.088 179.092 28.568 179.556 29.176C180.036 29.784 180.388 30.464 180.612 31.216C180.836 31.952 180.932 32.72 180.9 33.52C180.9 33.696 180.892 33.864 180.876 34.024C180.86 34.184 180.844 34.352 180.828 34.528H171.684C171.732 35.168 171.892 35.752 172.164 36.28C172.452 36.808 172.852 37.232 173.364 37.552C173.876 37.856 174.508 38.008 175.26 38.008C175.676 38.008 176.076 37.96 176.46 37.864C176.86 37.752 177.212 37.584 177.516 37.36C177.836 37.12 178.06 36.816 178.188 36.448H180.684C180.476 37.296 180.1 38 179.556 38.56C179.028 39.104 178.38 39.504 177.612 39.76C176.86 40.016 176.068 40.144 175.236 40.144ZM171.732 32.56H178.452C178.436 31.936 178.292 31.384 178.02 30.904C177.748 30.408 177.372 30.024 176.892 29.752C176.412 29.464 175.836 29.32 175.164 29.32C174.428 29.32 173.812 29.472 173.316 29.776C172.836 30.08 172.46 30.48 172.188 30.976C171.932 31.456 171.78 31.984 171.732 32.56ZM186.786 40L182.058 27.352H184.818L188.466 37.768L192.09 27.352H194.874L190.146 40H186.786ZM202.049 40.144C200.721 40.144 199.609 39.872 198.713 39.328C197.817 38.784 197.137 38.032 196.673 37.072C196.225 36.096 196.001 34.976 196.001 33.712C196.001 32.432 196.233 31.304 196.697 30.328C197.177 29.352 197.865 28.584 198.761 28.024C199.673 27.464 200.769 27.184 202.049 27.184C203.025 27.184 203.873 27.368 204.593 27.736C205.313 28.088 205.905 28.568 206.369 29.176C206.849 29.784 207.201 30.464 207.425 31.216C207.649 31.952 207.745 32.72 207.713 33.52C207.713 33.696 207.705 33.864 207.689 34.024C207.673 34.184 207.657 34.352 207.641 34.528H198.497C198.545 35.168 198.705 35.752 198.977 36.28C199.265 36.808 199.665 37.232 200.177 37.552C200.689 37.856 201.321 38.008 202.073 38.008C202.489 38.008 202.889 37.96 203.273 37.864C203.673 37.752 204.025 37.584 204.329 37.36C204.649 37.12 204.873 36.816 205.001 36.448H207.497C207.289 37.296 206.913 38 206.369 38.56C205.841 39.104 205.193 39.504 204.425 39.76C203.673 40.016 202.881 40.144 202.049 40.144ZM198.545 32.56H205.265C205.249 31.936 205.105 31.384 204.833 30.904C204.561 30.408 204.185 30.024 203.705 29.752C203.225 29.464 202.649 29.32 201.977 29.32C201.241 29.32 200.625 29.472 200.129 29.776C199.649 30.08 199.273 30.48 199.001 30.976C198.745 31.456 198.593 31.984 198.545 32.56ZM210.262 40V23.032H212.734V40H210.262ZM221.433 40.144C220.121 40.144 219.009 39.88 218.097 39.352C217.185 38.808 216.489 38.048 216.009 37.072C215.545 36.096 215.313 34.968 215.313 33.688C215.313 32.392 215.553 31.264 216.033 30.304C216.513 29.328 217.209 28.568 218.121 28.024C219.033 27.464 220.145 27.184 221.457 27.184C222.769 27.184 223.881 27.464 224.793 28.024C225.705 28.568 226.393 29.328 226.857 30.304C227.321 31.28 227.553 32.416 227.553 33.712C227.553 34.976 227.313 36.096 226.833 37.072C226.369 38.048 225.681 38.808 224.769 39.352C223.873 39.88 222.761 40.144 221.433 40.144ZM221.433 37.936C222.297 37.936 222.993 37.744 223.521 37.36C224.065 36.976 224.465 36.464 224.721 35.824C224.977 35.168 225.105 34.456 225.105 33.688C225.105 32.92 224.977 32.216 224.721 31.576C224.465 30.936 224.065 30.424 223.521 30.04C222.993 29.64 222.297 29.44 221.433 29.44C220.585 29.44 219.889 29.64 219.345 30.04C218.801 30.424 218.401 30.936 218.145 31.576C217.905 32.216 217.785 32.92 217.785 33.688C217.785 34.472 217.905 35.184 218.145 35.824C218.401 36.464 218.801 36.976 219.345 37.36C219.889 37.744 220.585 37.936 221.433 37.936ZM230.09 44.608V27.352H232.442L232.562 29.152C233.01 28.496 233.594 28.008 234.314 27.688C235.034 27.352 235.818 27.184 236.666 27.184C237.93 27.184 238.97 27.472 239.786 28.048C240.602 28.608 241.21 29.384 241.61 30.376C242.01 31.352 242.21 32.448 242.21 33.664C242.21 34.912 242.002 36.024 241.586 37C241.186 37.976 240.562 38.744 239.714 39.304C238.882 39.864 237.826 40.144 236.546 40.144C235.938 40.144 235.378 40.08 234.866 39.952C234.37 39.824 233.93 39.64 233.546 39.4C233.178 39.144 232.85 38.848 232.562 38.512V44.608H230.09ZM236.234 37.936C237.098 37.936 237.786 37.744 238.298 37.36C238.81 36.96 239.178 36.44 239.402 35.8C239.626 35.16 239.738 34.464 239.738 33.712C239.738 32.928 239.618 32.216 239.378 31.576C239.154 30.92 238.778 30.4 238.25 30.016C237.738 29.616 237.05 29.416 236.186 29.416C235.402 29.416 234.738 29.616 234.194 30.016C233.65 30.4 233.234 30.92 232.946 31.576C232.674 32.232 232.538 32.944 232.538 33.712C232.538 34.496 232.666 35.216 232.922 35.872C233.194 36.512 233.602 37.016 234.146 37.384C234.706 37.752 235.402 37.936 236.234 37.936ZM250.33 40.144C249.002 40.144 247.89 39.872 246.994 39.328C246.098 38.784 245.418 38.032 244.954 37.072C244.506 36.096 244.282 34.976 244.282 33.712C244.282 32.432 244.514 31.304 244.978 30.328C245.458 29.352 246.146 28.584 247.042 28.024C247.954 27.464 249.05 27.184 250.33 27.184C251.306 27.184 252.154 27.368 252.874 27.736C253.594 28.088 254.186 28.568 254.65 29.176C255.13 29.784 255.482 30.464 255.706 31.216C255.93 31.952 256.026 32.72 255.994 33.52C255.994 33.696 255.986 33.864 255.97 34.024C255.954 34.184 255.938 34.352 255.922 34.528H246.778C246.826 35.168 246.986 35.752 247.258 36.28C247.546 36.808 247.946 37.232 248.458 37.552C248.97 37.856 249.602 38.008 250.354 38.008C250.77 38.008 251.17 37.96 251.554 37.864C251.954 37.752 252.306 37.584 252.61 37.36C252.93 37.12 253.154 36.816 253.282 36.448H255.778C255.57 37.296 255.194 38 254.65 38.56C254.122 39.104 253.474 39.504 252.706 39.76C251.954 40.016 251.162 40.144 250.33 40.144ZM246.826 32.56H253.546C253.53 31.936 253.386 31.384 253.114 30.904C252.842 30.408 252.466 30.024 251.986 29.752C251.506 29.464 250.93 29.32 250.258 29.32C249.522 29.32 248.906 29.472 248.41 29.776C247.93 30.08 247.554 30.48 247.282 30.976C247.026 31.456 246.874 31.984 246.826 32.56ZM258.543 40V27.352H260.871L260.991 29.176C261.311 28.68 261.679 28.288 262.095 28C262.511 27.712 262.967 27.504 263.463 27.376C263.959 27.248 264.479 27.184 265.023 27.184C265.167 27.184 265.303 27.184 265.431 27.184C265.559 27.184 265.679 27.184 265.791 27.184V29.56H265.023C264.111 29.56 263.351 29.744 262.743 30.112C262.151 30.48 261.711 30.992 261.423 31.648C261.151 32.304 261.015 33.056 261.015 33.904V40H258.543ZM308.963 40.192C307.363 40.192 306.051 39.872 305.027 39.232C304.019 38.576 303.275 37.68 302.795 36.544C302.315 35.408 302.075 34.088 302.075 32.584V23.032H304.619V32.608C304.619 33.552 304.755 34.424 305.027 35.224C305.299 36.024 305.755 36.664 306.395 37.144C307.035 37.624 307.899 37.864 308.987 37.864C310.091 37.864 310.955 37.624 311.579 37.144C312.203 36.664 312.643 36.024 312.899 35.224C313.155 34.424 313.283 33.552 313.283 32.608V23.032H315.851V32.584C315.851 34.072 315.611 35.392 315.131 36.544C314.651 37.68 313.907 38.576 312.899 39.232C311.891 39.872 310.579 40.192 308.963 40.192ZM319.726 40V23.032H322.27V40H319.726ZM325.113 43.984L332.601 20.872H335.169L327.681 43.984H325.113ZM344.776 40.192C343.176 40.192 341.864 39.872 340.84 39.232C339.832 38.576 339.088 37.68 338.608 36.544C338.128 35.408 337.888 34.088 337.888 32.584V23.032H340.432V32.608C340.432 33.552 340.568 34.424 340.84 35.224C341.112 36.024 341.568 36.664 342.208 37.144C342.848 37.624 343.712 37.864 344.8 37.864C345.904 37.864 346.768 37.624 347.392 37.144C348.016 36.664 348.456 36.024 348.712 35.224C348.968 34.424 349.096 33.552 349.096 32.608V23.032H351.664V32.584C351.664 34.072 351.424 35.392 350.944 36.544C350.464 37.68 349.72 38.576 348.712 39.232C347.704 39.872 346.392 40.192 344.776 40.192ZM353.811 40L359.379 31.528L353.979 23.032H357.075L360.987 29.512L364.899 23.032H367.923L362.547 31.456L368.115 40H365.043L360.939 33.496L356.763 40H353.811ZM376.961 40V23.032H383.105C384.881 23.032 386.369 23.384 387.569 24.088C388.785 24.776 389.697 25.76 390.305 27.04C390.929 28.304 391.241 29.8 391.241 31.528C391.241 33.256 390.937 34.752 390.329 36.016C389.721 37.28 388.809 38.264 387.593 38.968C386.393 39.656 384.905 40 383.129 40H376.961ZM379.505 37.672H383.009C384.321 37.672 385.393 37.416 386.225 36.904C387.057 36.376 387.673 35.656 388.073 34.744C388.473 33.816 388.673 32.744 388.673 31.528C388.673 30.344 388.473 29.288 388.073 28.36C387.689 27.432 387.081 26.704 386.249 26.176C385.433 25.632 384.377 25.36 383.081 25.36H379.505V37.672ZM399.393 40.144C398.065 40.144 396.953 39.872 396.057 39.328C395.161 38.784 394.481 38.032 394.017 37.072C393.569 36.096 393.345 34.976 393.345 33.712C393.345 32.432 393.577 31.304 394.041 30.328C394.521 29.352 395.209 28.584 396.105 28.024C397.017 27.464 398.113 27.184 399.393 27.184C400.369 27.184 401.217 27.368 401.937 27.736C402.657 28.088 403.249 28.568 403.713 29.176C404.193 29.784 404.545 30.464 404.769 31.216C404.993 31.952 405.089 32.72 405.057 33.52C405.057 33.696 405.049 33.864 405.033 34.024C405.017 34.184 405.001 34.352 404.984 34.528H395.84C395.889 35.168 396.049 35.752 396.321 36.28C396.609 36.808 397.009 37.232 397.521 37.552C398.033 37.856 398.665 38.008 399.417 38.008C399.833 38.008 400.233 37.96 400.617 37.864C401.017 37.752 401.369 37.584 401.673 37.36C401.993 37.12 402.217 36.816 402.345 36.448H404.841C404.633 37.296 404.257 38 403.713 38.56C403.185 39.104 402.537 39.504 401.769 39.76C401.017 40.016 400.225 40.144 399.393 40.144ZM395.889 32.56H402.609C402.593 31.936 402.449 31.384 402.177 30.904C401.905 30.408 401.529 30.024 401.049 29.752C400.569 29.464 399.993 29.32 399.321 29.32C398.585 29.32 397.969 29.472 397.473 29.776C396.993 30.08 396.617 30.48 396.345 30.976C396.089 31.456 395.937 31.984 395.889 32.56ZM412.334 40.144C411.742 40.144 411.15 40.088 410.558 39.976C409.966 39.864 409.414 39.664 408.902 39.376C408.39 39.088 407.958 38.704 407.606 38.224C407.254 37.728 407.03 37.12 406.934 36.4H409.454C409.582 36.784 409.806 37.096 410.126 37.336C410.462 37.576 410.83 37.752 411.23 37.864C411.646 37.976 412.054 38.032 412.454 38.032C412.694 38.032 412.958 38.016 413.246 37.984C413.55 37.952 413.838 37.88 414.11 37.768C414.382 37.656 414.606 37.496 414.782 37.288C414.958 37.064 415.046 36.768 415.046 36.4C415.046 36.112 414.966 35.872 414.806 35.68C414.662 35.488 414.454 35.336 414.182 35.224C413.926 35.096 413.614 35 413.246 34.936C412.526 34.776 411.75 34.624 410.918 34.48C410.102 34.32 409.382 34.048 408.758 33.664C408.534 33.52 408.334 33.36 408.158 33.184C407.982 32.992 407.83 32.776 407.702 32.536C407.574 32.296 407.478 32.04 407.414 31.768C407.35 31.496 407.318 31.2 407.318 30.88C407.318 30.224 407.446 29.664 407.702 29.2C407.974 28.736 408.342 28.36 408.806 28.072C409.27 27.768 409.798 27.544 410.39 27.4C410.982 27.256 411.606 27.184 412.262 27.184C413.11 27.184 413.878 27.32 414.566 27.592C415.254 27.864 415.822 28.264 416.27 28.792C416.718 29.32 416.982 29.984 417.062 30.784H414.734C414.638 30.352 414.358 30.008 413.894 29.752C413.446 29.48 412.878 29.344 412.19 29.344C411.95 29.344 411.686 29.36 411.398 29.392C411.126 29.424 410.862 29.496 410.606 29.608C410.35 29.72 410.142 29.88 409.982 30.088C409.822 30.28 409.742 30.536 409.742 30.856C409.742 31.16 409.814 31.416 409.958 31.624C410.118 31.832 410.342 32 410.63 32.128C410.934 32.256 411.278 32.36 411.662 32.44C412.206 32.568 412.79 32.688 413.414 32.8C414.054 32.912 414.574 33.032 414.974 33.16C415.502 33.304 415.95 33.512 416.318 33.784C416.702 34.056 416.99 34.4 417.182 34.816C417.39 35.232 417.494 35.736 417.494 36.328C417.494 37.096 417.342 37.728 417.038 38.224C416.734 38.704 416.326 39.088 415.814 39.376C415.318 39.664 414.758 39.864 414.134 39.976C413.526 40.088 412.926 40.144 412.334 40.144ZM419.84 40V27.352H422.312V40H419.84ZM421.064 25.672C420.584 25.672 420.192 25.528 419.888 25.24C419.6 24.936 419.456 24.552 419.456 24.088C419.456 23.624 419.608 23.248 419.912 22.96C420.216 22.656 420.6 22.504 421.064 22.504C421.496 22.504 421.872 22.656 422.192 22.96C422.528 23.248 422.696 23.624 422.696 24.088C422.696 24.552 422.536 24.936 422.216 25.24C421.912 25.528 421.528 25.672 421.064 25.672ZM431.059 45.736C430.163 45.736 429.331 45.592 428.563 45.304C427.795 45.032 427.139 44.592 426.595 43.984C426.067 43.392 425.707 42.632 425.515 41.704H428.083C428.195 42.136 428.411 42.48 428.731 42.736C429.051 43.008 429.427 43.2 429.859 43.312C430.291 43.424 430.723 43.48 431.155 43.48C431.971 43.48 432.627 43.312 433.123 42.976C433.619 42.64 433.971 42.184 434.179 41.608C434.403 41.048 434.515 40.408 434.515 39.688V38.224C434.243 38.688 433.883 39.064 433.435 39.352C432.987 39.64 432.507 39.848 431.995 39.976C431.499 40.088 430.987 40.144 430.459 40.144C429.163 40.144 428.107 39.856 427.291 39.28C426.475 38.704 425.867 37.936 425.467 36.976C425.083 36 424.891 34.92 424.891 33.736C424.891 32.52 425.091 31.416 425.491 30.424C425.907 29.432 426.539 28.648 427.387 28.072C428.235 27.48 429.307 27.184 430.603 27.184C431.355 27.184 432.083 27.32 432.787 27.592C433.491 27.848 434.075 28.264 434.539 28.84L434.683 27.352H437.011V39.4C437.011 40.696 436.803 41.816 436.387 42.76C435.971 43.72 435.323 44.456 434.443 44.968C433.563 45.48 432.435 45.736 431.059 45.736ZM430.915 37.936C431.715 37.936 432.379 37.744 432.907 37.36C433.451 36.96 433.859 36.432 434.131 35.776C434.403 35.12 434.539 34.4 434.539 33.616C434.539 32.816 434.403 32.104 434.131 31.48C433.859 30.84 433.459 30.336 432.931 29.968C432.403 29.6 431.723 29.416 430.891 29.416C430.027 29.416 429.339 29.616 428.827 30.016C428.315 30.4 427.939 30.92 427.699 31.576C427.475 32.216 427.363 32.928 427.363 33.712C427.363 34.512 427.483 35.232 427.723 35.872C427.963 36.512 428.339 37.016 428.851 37.384C429.379 37.752 430.067 37.936 430.915 37.936ZM440.043 40V27.352H442.395L442.515 29.128C442.835 28.664 443.219 28.296 443.667 28.024C444.115 27.736 444.595 27.528 445.107 27.4C445.619 27.256 446.115 27.184 446.595 27.184C447.811 27.184 448.763 27.448 449.451 27.976C450.155 28.488 450.651 29.184 450.939 30.064C451.243 30.928 451.395 31.912 451.395 33.016V40H448.899V33.52C448.899 33.008 448.867 32.504 448.803 32.008C448.739 31.512 448.603 31.072 448.395 30.688C448.203 30.288 447.923 29.976 447.555 29.752C447.187 29.512 446.691 29.392 446.067 29.392C445.299 29.392 444.651 29.6 444.123 30.016C443.595 30.432 443.195 30.992 442.923 31.696C442.651 32.4 442.515 33.192 442.515 34.072V40H440.043ZM459.908 40.144C458.58 40.144 457.468 39.872 456.572 39.328C455.676 38.784 454.996 38.032 454.532 37.072C454.084 36.096 453.86 34.976 453.86 33.712C453.86 32.432 454.092 31.304 454.556 30.328C455.036 29.352 455.724 28.584 456.62 28.024C457.532 27.464 458.628 27.184 459.908 27.184C460.884 27.184 461.732 27.368 462.452 27.736C463.172 28.088 463.764 28.568 464.228 29.176C464.708 29.784 465.06 30.464 465.284 31.216C465.508 31.952 465.604 32.72 465.572 33.52C465.572 33.696 465.564 33.864 465.548 34.024C465.532 34.184 465.516 34.352 465.5 34.528H456.356C456.404 35.168 456.564 35.752 456.836 36.28C457.124 36.808 457.524 37.232 458.036 37.552C458.548 37.856 459.18 38.008 459.932 38.008C460.348 38.008 460.748 37.96 461.132 37.864C461.532 37.752 461.884 37.584 462.188 37.36C462.508 37.12 462.732 36.816 462.86 36.448H465.356C465.148 37.296 464.772 38 464.228 38.56C463.7 39.104 463.052 39.504 462.284 39.76C461.532 40.016 460.74 40.144 459.908 40.144ZM456.404 32.56H463.124C463.108 31.936 462.964 31.384 462.692 30.904C462.42 30.408 462.044 30.024 461.564 29.752C461.084 29.464 460.508 29.32 459.836 29.32C459.1 29.32 458.484 29.472 457.988 29.776C457.508 30.08 457.132 30.48 456.86 30.976C456.604 31.456 456.452 31.984 456.404 32.56ZM468.121 40V27.352H470.449L470.569 29.176C470.889 28.68 471.257 28.288 471.673 28C472.089 27.712 472.545 27.504 473.041 27.376C473.537 27.248 474.057 27.184 474.601 27.184C474.745 27.184 474.881 27.184 475.009 27.184C475.137 27.184 475.257 27.184 475.369 27.184V29.56H474.601C473.689 29.56 472.929 29.744 472.321 30.112C471.729 30.48 471.289 30.992 471.001 31.648C470.729 32.304 470.593 33.056 470.593 33.904V40H468.121Z" fill="url(#paint1_linear_2009_22)"/>
<path d="M282.694 41.008C282.518 39.968 282.054 38.848 281.302 37.648C280.55 36.432 279.478 35.304 278.086 34.264C276.71 33.224 275.334 32.56 273.958 32.272V31.264C275.318 30.944 276.622 30.352 277.87 29.488C279.134 28.608 280.19 27.552 281.038 26.32C281.902 25.056 282.454 23.808 282.694 22.576H283.702C283.846 23.376 284.134 24.2 284.566 25.048C284.998 25.88 285.55 26.68 286.222 27.448C286.91 28.2 287.678 28.88 288.526 29.488C289.79 30.384 291.078 30.976 292.39 31.264V32.272C291.51 32.448 290.598 32.808 289.654 33.352C288.726 33.896 287.862 34.544 287.062 35.296C286.262 36.032 285.606 36.808 285.094 37.624C284.342 38.824 283.878 39.952 283.702 41.008H282.694Z" fill="url(#paint2_linear_2009_22)"/>
<defs>
<linearGradient id="paint0_linear_2009_22" x1="183.833" y1="0.999999" x2="228.802" y2="105.477" gradientUnits="userSpaceOnUse">
<stop stop-color="#ABB6FF"/>
<stop offset="0.5" stop-color="#F3AAFE"/>
<stop offset="1" stop-color="#FFD3C0"/>
</linearGradient>
<linearGradient id="paint1_linear_2009_22" x1="254.5" y1="17" x2="254.5" y2="48" gradientUnits="userSpaceOnUse">
<stop stop-color="#2D2D2D"/>
<stop offset="1"/>
</linearGradient>
<linearGradient id="paint2_linear_2009_22" x1="192.753" y1="17" x2="206.704" y2="74.5522" gradientUnits="userSpaceOnUse">
<stop stop-color="#ABB6FF"/>
<stop offset="0.5" stop-color="#F3AAFE"/>
<stop offset="1" stop-color="#FFD3C0"/>
</linearGradient>
</defs>
</svg>
