<svg width="60" height="60" viewBox="0 0 60 60" fill="none" xmlns="http://www.w3.org/2000/svg">
<path d="M30 18.75C27.775 18.75 25.5999 19.4098 23.7498 20.646C21.8998 21.8821 20.4578 23.6391 19.6064 25.6948C18.7549 27.7505 18.5321 30.0125 18.9662 32.1948C19.4003 34.3771 20.4717 36.3816 22.045 37.955C23.6184 39.5283 25.6229 40.5998 27.8052 41.0338C29.9875 41.4679 32.2495 41.2451 34.3052 40.3936C36.3609 39.5422 38.1179 38.1002 39.354 36.2502C40.5902 34.4001 41.25 32.225 41.25 30C41.2469 27.0173 40.0606 24.1576 37.9515 22.0485C35.8424 19.9394 32.9827 18.7531 30 18.75ZM30 37.5C28.5166 37.5 27.0666 37.0601 25.8332 36.236C24.5999 35.4119 23.6386 34.2406 23.0709 32.8701C22.5032 31.4997 22.3547 29.9917 22.6441 28.5368C22.9335 27.082 23.6478 25.7456 24.6967 24.6967C25.7456 23.6478 27.082 22.9335 28.5368 22.6441C29.9917 22.3547 31.4997 22.5032 32.8701 23.0709C34.2406 23.6386 35.4119 24.5999 36.236 25.8332C37.0601 27.0666 37.5 28.5166 37.5 30C37.5 31.9891 36.7098 33.8968 35.3033 35.3033C33.8968 36.7098 31.9891 37.5 30 37.5ZM41.25 5.625H18.75C15.2702 5.62872 11.9339 7.01273 9.47334 9.47334C7.01273 11.9339 5.62872 15.2702 5.625 18.75V41.25C5.62872 44.7298 7.01273 48.0661 9.47334 50.5267C11.9339 52.9873 15.2702 54.3713 18.75 54.375H41.25C44.7298 54.3713 48.0661 52.9873 50.5267 50.5267C52.9873 48.0661 54.3713 44.7298 54.375 41.25V18.75C54.3713 15.2702 52.9873 11.9339 50.5267 9.47334C48.0661 7.01273 44.7298 5.62872 41.25 5.625ZM50.625 41.25C50.625 43.7364 49.6373 46.121 47.8791 47.8791C46.121 49.6373 43.7364 50.625 41.25 50.625H18.75C16.2636 50.625 13.879 49.6373 12.1209 47.8791C10.3627 46.121 9.375 43.7364 9.375 41.25V18.75C9.375 16.2636 10.3627 13.879 12.1209 12.1209C13.879 10.3627 16.2636 9.375 18.75 9.375H41.25C43.7364 9.375 46.121 10.3627 47.8791 12.1209C49.6373 13.879 50.625 16.2636 50.625 18.75V41.25ZM45 17.8125C45 18.3688 44.835 18.9125 44.526 19.375C44.217 19.8376 43.7777 20.198 43.2638 20.4109C42.7499 20.6238 42.1844 20.6795 41.6388 20.571C41.0932 20.4624 40.5921 20.1946 40.1988 19.8012C39.8054 19.4079 39.5376 18.9068 39.429 18.3612C39.3205 17.8156 39.3762 17.2501 39.5891 16.7362C39.802 16.2223 40.1624 15.783 40.625 15.474C41.0875 15.1649 41.6312 15 42.1875 15C42.9334 15 43.6488 15.2963 44.1762 15.8238C44.7037 16.3512 45 17.0666 45 17.8125Z" fill="url(#paint0_linear_2089_93)"/>
<defs>
<linearGradient id="paint0_linear_2089_93" x1="30" y1="5.625" x2="30" y2="54.375" gradientUnits="userSpaceOnUse">
<stop stop-color="#2D2D2D"/>
<stop offset="1"/>
</linearGradient>
</defs>
</svg>
