<svg width="48" height="48" viewBox="0 0 48 48" fill="none" xmlns="http://www.w3.org/2000/svg">
<rect width="48" height="48" rx="24" fill="url(#paint0_linear_2054_2)" fill-opacity="0.1"/>
<path d="M23.3581 35.844C23.1235 34.4573 22.5048 32.964 21.5021 31.364C20.4995 29.7427 19.0701 28.2387 17.2141 26.852C15.3795 25.4653 13.5448 24.58 11.7101 24.196V22.852C13.5235 22.4253 15.2621 21.636 16.9261 20.484C18.6115 19.3107 20.0195 17.9027 21.1501 16.26C22.3021 14.5747 23.0381 12.9107 23.3581 11.268H24.7021C24.8941 12.3347 25.2781 13.4333 25.8541 14.564C26.4301 15.6733 27.1661 16.74 28.0621 17.764C28.9795 18.7667 30.0035 19.6733 31.1341 20.484C32.8195 21.6787 34.5368 22.468 36.2861 22.852V24.196C35.1128 24.4307 33.8968 24.9107 32.6381 25.636C31.4008 26.3613 30.2488 27.2253 29.1821 28.228C28.1155 29.2093 27.2408 30.244 26.5581 31.332C25.5555 32.932 24.9368 34.436 24.7021 35.844H23.3581Z" fill="url(#paint1_linear_2054_2)"/>
<defs>
<linearGradient id="paint0_linear_2054_2" x1="17.3096" y1="-5.67239e-07" x2="42.4523" y2="7.25862" gradientUnits="userSpaceOnUse">
<stop stop-color="#ABB6FF"/>
<stop offset="0.5" stop-color="#F3AAFE"/>
<stop offset="1" stop-color="#FFD3C0"/>
</linearGradient>
<linearGradient id="paint1_linear_2054_2" x1="20.0973" y1="3.5" x2="35.3917" y2="6.51544" gradientUnits="userSpaceOnUse">
<stop stop-color="#ABB6FF"/>
<stop offset="0.5" stop-color="#F3AAFE"/>
<stop offset="1" stop-color="#FFD3C0"/>
</linearGradient>
</defs>
</svg>
