<svg width="224" height="63" viewBox="0 0 224 63" fill="none" xmlns="http://www.w3.org/2000/svg">
<rect x="1" y="1" width="222" height="61" rx="30.5" fill="#FBFBFB"/>
<rect x="1" y="1" width="222" height="61" rx="30.5" stroke="url(#paint0_linear_2047_252)" stroke-width="2"/>
<path d="M43.2803 41.008C43.1043 39.968 42.6403 38.848 41.8883 37.648C41.1363 36.432 40.0643 35.304 38.6723 34.264C37.2963 33.224 35.9203 32.56 34.5443 32.272V31.264C35.9043 30.944 37.2083 30.352 38.4563 29.488C39.7203 28.608 40.7763 27.552 41.6243 26.32C42.4883 25.056 43.0403 23.808 43.2803 22.576H44.2883C44.4323 23.376 44.7203 24.2 45.1523 25.048C45.5843 25.88 46.1363 26.68 46.8083 27.448C47.4963 28.2 48.2643 28.88 49.1123 29.488C50.3763 30.384 51.6643 30.976 52.9763 31.264V32.272C52.0963 32.448 51.1843 32.808 50.2403 33.352C49.3123 33.896 48.4483 34.544 47.6483 35.296C46.8483 36.032 46.1923 36.808 45.6803 37.624C44.9283 38.824 44.4643 39.952 44.2883 41.008H43.2803Z" fill="url(#paint1_linear_2047_252)"/>
<path d="M60.7135 40V22.72H64.6495L70.4095 39.376H69.1135L74.8255 22.72H78.8095V40H76.2895V23.752H76.6735L71.1055 40H68.2735L62.7055 23.896H63.0895V40H60.7135ZM83.2578 44.92L86.2098 38.176L86.7138 37.384L90.4338 27.76H93.0258L85.8258 44.92H83.2578ZM86.0898 40L80.8578 27.76H83.5698L88.0098 38.776L86.0898 40ZM99.8307 40V22.72H107.151C108.399 22.72 109.463 22.928 110.343 23.344C111.223 23.76 111.895 24.352 112.359 25.12C112.839 25.888 113.079 26.8 113.079 27.856C113.079 28.928 112.839 29.856 112.359 30.64C111.895 31.408 111.215 32.008 110.319 32.44C109.439 32.872 108.383 33.088 107.151 33.088H101.775V30.976H107.031C108.167 30.976 109.031 30.704 109.623 30.16C110.231 29.616 110.535 28.856 110.535 27.88C110.535 26.888 110.239 26.128 109.647 25.6C109.055 25.072 108.183 24.808 107.031 24.808H102.375V40H99.8307ZM115.674 40V27.76H118.05V30.808H118.17V40H115.674ZM118.17 33.616L117.858 30.712C118.146 29.672 118.642 28.88 119.346 28.336C120.05 27.792 120.89 27.52 121.866 27.52C122.234 27.52 122.49 27.552 122.634 27.616V29.968C122.554 29.936 122.442 29.92 122.298 29.92C122.154 29.904 121.978 29.896 121.77 29.896C120.57 29.896 119.666 30.208 119.058 30.832C118.466 31.456 118.17 32.384 118.17 33.616ZM130.119 40.24C128.871 40.24 127.775 39.968 126.831 39.424C125.887 38.864 125.151 38.104 124.623 37.144C124.095 36.168 123.831 35.064 123.831 33.832C123.831 32.584 124.095 31.488 124.623 30.544C125.167 29.6 125.903 28.864 126.831 28.336C127.775 27.792 128.871 27.52 130.119 27.52C131.383 27.52 132.487 27.792 133.431 28.336C134.375 28.864 135.103 29.6 135.615 30.544C136.143 31.488 136.407 32.584 136.407 33.832C136.407 35.064 136.143 36.168 135.615 37.144C135.103 38.104 134.375 38.864 133.431 39.424C132.487 39.968 131.383 40.24 130.119 40.24ZM130.119 38.2C130.871 38.2 131.519 38.016 132.063 37.648C132.623 37.28 133.063 36.768 133.383 36.112C133.703 35.456 133.863 34.688 133.863 33.808C133.863 32.496 133.511 31.464 132.807 30.712C132.119 29.944 131.223 29.56 130.119 29.56C129.031 29.56 128.135 29.944 127.431 30.712C126.743 31.48 126.399 32.512 126.399 33.808C126.399 34.688 126.551 35.456 126.855 36.112C127.175 36.768 127.615 37.28 128.175 37.648C128.751 38.016 129.399 38.2 130.119 38.2ZM137.676 45.16C137.388 45.16 137.14 45.144 136.932 45.112C136.724 45.08 136.54 45.032 136.38 44.968V43.048C136.492 43.08 136.644 43.112 136.836 43.144C137.012 43.176 137.196 43.192 137.388 43.192C137.948 43.192 138.34 43.064 138.564 42.808C138.804 42.568 138.924 42.2 138.924 41.704V27.76H141.42V41.776C141.42 42.848 141.116 43.68 140.508 44.272C139.916 44.864 138.972 45.16 137.676 45.16ZM138.804 25.36V22.552H141.564V25.36H138.804ZM150.157 40.24C148.925 40.24 147.837 39.968 146.893 39.424C145.965 38.88 145.237 38.128 144.709 37.168C144.181 36.208 143.917 35.104 143.917 33.856C143.917 32.592 144.173 31.488 144.685 30.544C145.213 29.584 145.949 28.84 146.893 28.312C147.837 27.784 148.917 27.52 150.133 27.52C151.317 27.52 152.341 27.776 153.205 28.288C154.085 28.784 154.757 29.48 155.221 30.376C155.701 31.272 155.941 32.336 155.941 33.568C155.941 33.76 155.933 33.944 155.917 34.12C155.917 34.28 155.901 34.448 155.869 34.624H145.597V32.752H154.117L153.493 33.496C153.493 32.184 153.197 31.184 152.605 30.496C152.013 29.808 151.189 29.464 150.133 29.464C148.997 29.464 148.093 29.856 147.421 30.64C146.765 31.408 146.437 32.48 146.437 33.856C146.437 35.248 146.765 36.336 147.421 37.12C148.093 37.904 149.021 38.296 150.205 38.296C150.925 38.296 151.549 38.152 152.077 37.864C152.605 37.56 152.997 37.12 153.253 36.544H155.605C155.205 37.696 154.525 38.6 153.565 39.256C152.621 39.912 151.485 40.24 150.157 40.24ZM163.653 40.24C162.485 40.24 161.445 39.968 160.533 39.424C159.621 38.864 158.901 38.104 158.373 37.144C157.861 36.184 157.604 35.088 157.604 33.856C157.604 32.624 157.861 31.536 158.373 30.592C158.901 29.632 159.621 28.88 160.533 28.336C161.445 27.792 162.477 27.52 163.629 27.52C164.605 27.52 165.477 27.704 166.245 28.072C167.013 28.44 167.645 28.952 168.141 29.608C168.637 30.264 168.957 31.04 169.101 31.936H166.749C166.589 31.216 166.237 30.64 165.693 30.208C165.165 29.776 164.493 29.56 163.677 29.56C162.973 29.56 162.357 29.736 161.829 30.088C161.301 30.44 160.893 30.936 160.605 31.576C160.317 32.216 160.173 32.976 160.173 33.856C160.173 34.72 160.317 35.48 160.605 36.136C160.893 36.792 161.301 37.304 161.829 37.672C162.357 38.024 162.981 38.2 163.701 38.2C164.485 38.2 165.149 37.992 165.693 37.576C166.253 37.144 166.613 36.568 166.773 35.848H169.125C168.965 36.728 168.629 37.496 168.117 38.152C167.621 38.808 166.989 39.32 166.221 39.688C165.453 40.056 164.597 40.24 163.653 40.24ZM176.71 40.24C175.286 40.24 174.238 39.912 173.566 39.256C172.91 38.584 172.582 37.6 172.582 36.304V24.952L175.054 24.016V36.328C175.054 36.968 175.222 37.44 175.558 37.744C175.894 38.048 176.438 38.2 177.19 38.2C177.478 38.2 177.734 38.176 177.958 38.128C178.182 38.08 178.374 38.024 178.534 37.96V39.976C178.358 40.056 178.11 40.12 177.79 40.168C177.47 40.216 177.11 40.24 176.71 40.24ZM170.134 29.752V27.76H178.534V29.752H170.134ZM185.246 40.24C183.646 40.24 182.374 39.888 181.43 39.184C180.486 38.48 179.95 37.488 179.822 36.208H182.126C182.238 36.912 182.558 37.456 183.086 37.84C183.63 38.208 184.366 38.392 185.294 38.392C186.11 38.392 186.734 38.248 187.166 37.96C187.598 37.672 187.814 37.264 187.814 36.736C187.814 36.352 187.686 36.032 187.43 35.776C187.19 35.504 186.71 35.28 185.99 35.104L184.022 34.648C182.79 34.344 181.87 33.896 181.262 33.304C180.67 32.696 180.374 31.952 180.374 31.072C180.374 29.968 180.782 29.104 181.598 28.48C182.43 27.84 183.566 27.52 185.006 27.52C186.43 27.52 187.574 27.84 188.438 28.48C189.318 29.12 189.814 30.016 189.926 31.168H187.622C187.526 30.592 187.246 30.152 186.782 29.848C186.334 29.528 185.718 29.368 184.934 29.368C184.198 29.368 183.63 29.504 183.23 29.776C182.846 30.032 182.654 30.392 182.654 30.856C182.654 31.24 182.798 31.56 183.086 31.816C183.39 32.072 183.886 32.288 184.574 32.464L186.59 32.968C187.758 33.256 188.638 33.728 189.23 34.384C189.822 35.024 190.118 35.8 190.118 36.712C190.118 37.816 189.686 38.68 188.822 39.304C187.974 39.928 186.782 40.24 185.246 40.24Z" fill="url(#paint2_linear_2047_252)"/>
<defs>
<linearGradient id="paint0_linear_2047_252" x1="81.057" y1="0.999999" x2="140.935" y2="63.9115" gradientUnits="userSpaceOnUse">
<stop stop-color="#ABB6FF"/>
<stop offset="0.5" stop-color="#F3AAFE"/>
<stop offset="1" stop-color="#FFD3C0"/>
</linearGradient>
<linearGradient id="paint1_linear_2047_252" x1="89.9775" y1="17" x2="115.786" y2="57.5942" gradientUnits="userSpaceOnUse">
<stop stop-color="#ABB6FF"/>
<stop offset="0.5" stop-color="#F3AAFE"/>
<stop offset="1" stop-color="#FFD3C0"/>
</linearGradient>
<linearGradient id="paint2_linear_2047_252" x1="112" y1="17" x2="112" y2="46" gradientUnits="userSpaceOnUse">
<stop stop-color="#2D2D2D"/>
<stop offset="1"/>
</linearGradient>
</defs>
</svg>
