<svg width="206" height="65" viewBox="0 0 206 65" fill="none" xmlns="http://www.w3.org/2000/svg">
<rect x="1.5" y="1" width="203" height="63" rx="31.5" fill="#FBFBFB"/>
<rect x="1.5" y="1" width="203" height="63" rx="31.5" stroke="url(#paint0_linear_2036_115)" stroke-width="2"/>
<path d="M43.667 41.008C43.491 39.968 43.027 38.848 42.275 37.648C41.523 36.432 40.451 35.304 39.059 34.264C37.683 33.224 36.307 32.56 34.931 32.272V31.264C36.291 30.944 37.595 30.352 38.843 29.488C40.107 28.608 41.163 27.552 42.011 26.32C42.875 25.056 43.427 23.808 43.667 22.576H44.675C44.819 23.376 45.107 24.2 45.539 25.048C45.971 25.88 46.523 26.68 47.195 27.448C47.883 28.2 48.651 28.88 49.499 29.488C50.763 30.384 52.051 30.976 53.363 31.264V32.272C52.483 32.448 51.571 32.808 50.627 33.352C49.699 33.896 48.835 34.544 48.035 35.296C47.235 36.032 46.579 36.808 46.067 37.624C45.315 38.824 44.851 39.952 44.675 41.008H43.667Z" fill="url(#paint1_linear_2036_115)"/>
<path d="M64.4741 40L60.0101 23.032H62.8661L66.4181 37.552L69.8981 23.032H73.5221L76.9781 37.552L80.5301 23.032H83.2421L78.8021 40H75.1061L71.6501 25.72L68.1941 40H64.4741ZM85.0237 40V23.032H87.4957V29.128C87.8317 28.696 88.2157 28.336 88.6477 28.048C89.0957 27.76 89.5757 27.544 90.0877 27.4C90.5997 27.256 91.1117 27.184 91.6237 27.184C92.8397 27.184 93.7917 27.448 94.4797 27.976C95.1677 28.488 95.6557 29.184 95.9437 30.064C96.2317 30.944 96.3757 31.936 96.3757 33.04V40H93.8797V33.616C93.8797 33.104 93.8397 32.6 93.7597 32.104C93.6957 31.608 93.5677 31.16 93.3757 30.76C93.1837 30.344 92.8877 30.016 92.4877 29.776C92.1037 29.52 91.5837 29.392 90.9277 29.392C90.3037 29.392 89.7677 29.528 89.3197 29.8C88.8877 30.072 88.5357 30.44 88.2637 30.904C88.0077 31.352 87.8157 31.848 87.6877 32.392C87.5597 32.92 87.4957 33.448 87.4957 33.976V40H85.0237ZM103.353 40.144C102.777 40.144 102.217 40.072 101.673 39.928C101.145 39.768 100.673 39.536 100.257 39.232C99.8406 38.912 99.5046 38.52 99.2486 38.056C99.0086 37.576 98.8886 37.016 98.8886 36.376C98.8886 35.608 99.0326 34.976 99.3206 34.48C99.6246 33.968 100.025 33.576 100.521 33.304C101.017 33.016 101.585 32.816 102.225 32.704C102.881 32.576 103.561 32.512 104.265 32.512H107.361C107.361 31.888 107.265 31.344 107.073 30.88C106.881 30.4 106.577 30.032 106.161 29.776C105.761 29.504 105.225 29.368 104.553 29.368C104.153 29.368 103.769 29.416 103.401 29.512C103.049 29.592 102.745 29.728 102.489 29.92C102.233 30.112 102.057 30.368 101.961 30.688H99.3686C99.4646 30.08 99.6806 29.56 100.017 29.128C100.353 28.68 100.769 28.312 101.265 28.024C101.761 27.736 102.289 27.528 102.849 27.4C103.425 27.256 104.009 27.184 104.601 27.184C106.425 27.184 107.737 27.72 108.537 28.792C109.353 29.848 109.761 31.304 109.761 33.16V40H107.625L107.529 38.392C107.161 38.888 106.721 39.264 106.209 39.52C105.713 39.776 105.217 39.944 104.721 40.024C104.225 40.104 103.769 40.144 103.353 40.144ZM103.737 38.056C104.457 38.056 105.089 37.936 105.633 37.696C106.177 37.44 106.601 37.08 106.905 36.616C107.209 36.136 107.361 35.576 107.361 34.936V34.408H105.105C104.641 34.408 104.185 34.424 103.737 34.456C103.305 34.472 102.905 34.536 102.537 34.648C102.185 34.744 101.897 34.912 101.673 35.152C101.465 35.392 101.361 35.736 101.361 36.184C101.361 36.616 101.473 36.968 101.697 37.24C101.921 37.512 102.217 37.72 102.585 37.864C102.953 37.992 103.337 38.056 103.737 38.056ZM117.623 40.144C116.263 40.144 115.287 39.776 114.695 39.04C114.119 38.288 113.831 37.24 113.831 35.896V29.56H111.815V27.352H113.831V23.68H116.303V27.352H120.167V29.56H116.303V35.488C116.303 35.936 116.343 36.344 116.423 36.712C116.519 37.08 116.695 37.368 116.951 37.576C117.207 37.784 117.575 37.896 118.055 37.912C118.423 37.912 118.743 37.848 119.015 37.72C119.303 37.592 119.535 37.448 119.711 37.288L120.671 39.136C120.367 39.376 120.047 39.576 119.711 39.736C119.391 39.88 119.055 39.984 118.703 40.048C118.351 40.112 117.991 40.144 117.623 40.144ZM129.519 40V23.032H132.063V40H129.519ZM142.644 40V23.032H148.788C150.564 23.032 152.052 23.384 153.252 24.088C154.468 24.776 155.38 25.76 155.988 27.04C156.612 28.304 156.924 29.8 156.924 31.528C156.924 33.256 156.62 34.752 156.012 36.016C155.404 37.28 154.492 38.264 153.276 38.968C152.076 39.656 150.588 40 148.812 40H142.644ZM145.188 37.672H148.692C150.004 37.672 151.076 37.416 151.908 36.904C152.74 36.376 153.356 35.656 153.756 34.744C154.156 33.816 154.356 32.744 154.356 31.528C154.356 30.344 154.156 29.288 153.756 28.36C153.372 27.432 152.764 26.704 151.932 26.176C151.116 25.632 150.06 25.36 148.764 25.36H145.188V37.672ZM165.148 40.144C163.836 40.144 162.724 39.88 161.812 39.352C160.9 38.808 160.204 38.048 159.724 37.072C159.26 36.096 159.028 34.968 159.028 33.688C159.028 32.392 159.268 31.264 159.748 30.304C160.228 29.328 160.924 28.568 161.836 28.024C162.748 27.464 163.86 27.184 165.172 27.184C166.484 27.184 167.596 27.464 168.508 28.024C169.42 28.568 170.108 29.328 170.572 30.304C171.036 31.28 171.268 32.416 171.268 33.712C171.268 34.976 171.028 36.096 170.548 37.072C170.084 38.048 169.396 38.808 168.484 39.352C167.588 39.88 166.476 40.144 165.148 40.144ZM165.148 37.936C166.012 37.936 166.708 37.744 167.236 37.36C167.78 36.976 168.18 36.464 168.436 35.824C168.692 35.168 168.82 34.456 168.82 33.688C168.82 32.92 168.692 32.216 168.436 31.576C168.18 30.936 167.78 30.424 167.236 30.04C166.708 29.64 166.012 29.44 165.148 29.44C164.3 29.44 163.604 29.64 163.06 30.04C162.516 30.424 162.116 30.936 161.86 31.576C161.62 32.216 161.5 32.92 161.5 33.688C161.5 34.472 161.62 35.184 161.86 35.824C162.116 36.464 162.516 36.976 163.06 37.36C163.604 37.744 164.3 37.936 165.148 37.936Z" fill="url(#paint2_linear_2036_115)"/>
<defs>
<linearGradient id="paint0_linear_2036_115" x1="74.7053" y1="0.999999" x2="136.46" y2="58.4472" gradientUnits="userSpaceOnUse">
<stop stop-color="#ABB6FF"/>
<stop offset="0.5" stop-color="#F3AAFE"/>
<stop offset="1" stop-color="#FFD3C0"/>
</linearGradient>
<linearGradient id="paint1_linear_2036_115" x1="83.6258" y1="17" x2="113.105" y2="55.1605" gradientUnits="userSpaceOnUse">
<stop stop-color="#ABB6FF"/>
<stop offset="0.5" stop-color="#F3AAFE"/>
<stop offset="1" stop-color="#FFD3C0"/>
</linearGradient>
<linearGradient id="paint2_linear_2036_115" x1="103" y1="17" x2="103" y2="48" gradientUnits="userSpaceOnUse">
<stop stop-color="#2D2D2D"/>
<stop offset="1"/>
</linearGradient>
</defs>
</svg>
