<svg width="26" height="25" viewBox="0 0 26 25" fill="none" xmlns="http://www.w3.org/2000/svg">
<path d="M12.3581 24.844C12.1235 23.4573 11.5048 21.964 10.5021 20.364C9.49946 18.7427 8.07013 17.2387 6.21413 15.852C4.37946 14.4653 2.54479 13.58 0.710125 13.196V11.852C2.52346 11.4253 4.26213 10.636 5.92613 9.484C7.61146 8.31067 9.01946 6.90267 10.1501 5.26C11.3021 3.57467 12.0381 1.91067 12.3581 0.268H13.7021C13.8941 1.33467 14.2781 2.43333 14.8541 3.564C15.4301 4.67333 16.1661 5.74 17.0621 6.764C17.9795 7.76667 19.0035 8.67333 20.1341 9.484C21.8195 10.6787 23.5368 11.468 25.2861 11.852V13.196C24.1128 13.4307 22.8968 13.9107 21.6381 14.636C20.4008 15.3613 19.2488 16.2253 18.1821 17.228C17.1155 18.2093 16.2408 19.244 15.5581 20.332C14.5555 21.932 13.9368 23.436 13.7021 24.844H12.3581Z" fill="url(#paint0_linear_2054_3)"/>
<defs>
<linearGradient id="paint0_linear_2054_3" x1="9.09728" y1="-7.5" x2="24.3917" y2="-4.48456" gradientUnits="userSpaceOnUse">
<stop stop-color="#ABB6FF"/>
<stop offset="0.5" stop-color="#F3AAFE"/>
<stop offset="1" stop-color="#FFD3C0"/>
</linearGradient>
</defs>
</svg>
