<svg width="60" height="60" viewBox="0 0 60 60" fill="none" xmlns="http://www.w3.org/2000/svg">
<path d="M50.332 49.6195L35.6601 26.5617L50.1375 10.6359C50.4649 10.2669 50.6337 9.78359 50.6072 9.29091C50.5807 8.79824 50.361 8.33586 49.9959 8.00404C49.6308 7.67221 49.1496 7.49768 48.6566 7.51827C48.1636 7.53887 47.6987 7.75293 47.3625 8.11406L33.5719 23.2828L24.082 8.36953C23.9128 8.10317 23.6791 7.88384 23.4025 7.73184C23.126 7.57984 22.8155 7.5001 22.5 7.5H11.25C10.9138 7.49984 10.5838 7.59006 10.2944 7.76123C10.0051 7.9324 9.76706 8.17822 9.60532 8.47294C9.44358 8.76766 9.36406 9.10045 9.37508 9.43646C9.3861 9.77246 9.48725 10.0993 9.66795 10.3828L24.3398 33.4383L9.86248 49.3758C9.69342 49.5574 9.56208 49.7707 9.47609 50.0035C9.39009 50.2362 9.35114 50.4837 9.3615 50.7316C9.37186 50.9795 9.43131 51.2229 9.53643 51.4477C9.64154 51.6724 9.79021 51.8741 9.97384 52.041C10.1575 52.2078 10.3724 52.3366 10.6061 52.4198C10.8399 52.503 11.0878 52.539 11.3356 52.5257C11.5834 52.5123 11.826 52.4499 12.0495 52.3421C12.273 52.2344 12.4728 52.0833 12.6375 51.8977L26.4281 36.7289L35.918 51.6422C36.0886 51.9064 36.3229 52.1234 36.5993 52.2733C36.8758 52.4232 37.1855 52.5012 37.5 52.5H48.75C49.0858 52.4999 49.4154 52.4096 49.7044 52.2386C49.9934 52.0675 50.2312 51.822 50.3928 51.5276C50.5545 51.2333 50.6342 50.9009 50.6235 50.5653C50.6128 50.2296 50.5121 49.903 50.332 49.6195ZM38.5289 48.75L14.6648 11.25H21.4617L45.3351 48.75H38.5289Z" fill="url(#paint0_linear_2089_95)"/>
<defs>
<linearGradient id="paint0_linear_2089_95" x1="29.9921" y1="7.5" x2="29.9921" y2="52.5284" gradientUnits="userSpaceOnUse">
<stop stop-color="#2D2D2D"/>
<stop offset="1"/>
</linearGradient>
</defs>
</svg>
